<?xml version="1.0" encoding="utf-8"?>
<!-- Generator: Adobe Illustrator 21.0.0, SVG Export Plug-In . SVG Version: 6.00 Build 0)  -->
<svg version="1.1" id="logo" xmlns:svg="http://www.w3.org/2000/svg"
	 xmlns="http://www.w3.org/2000/svg" xmlns:xlink="http://www.w3.org/1999/xlink" x="0px" y="0px" viewBox="0 0 400 300"
	 style="enable-background:new 0 0 400 300;" xml:space="preserve">
<style type="text/css">
	.st0{fill:#231F20;}
	.st1{fill:#E51636;}
	.st2{fill:#FFFFFF;}
</style>
<path id="logo_4_" class="st0" d="M393.3,134.5l-0.8,0l0-1l0.8,0c0.3,0,0.6,0.2,0.6,0.5C393.9,134.3,393.6,134.5,393.3,134.5
	 M394.7,134c0-0.7-0.5-1.2-1.3-1.2l-1.7,0l0,3.7l0.8,0l0-1.3l0.6,0l0.8,1.3l0.9,0l-0.9-1.4C394.3,135,394.7,134.6,394.7,134
	 M393.1,137.8c-1.7,0-3.2-1.4-3.2-3.2c0-1.7,1.4-3.2,3.2-3.2c1.7,0,3.2,1.4,3.2,3.2C396.2,136.4,394.8,137.8,393.1,137.8
	 M393.1,130.7c-2.2,0-3.9,1.8-3.9,3.9c0,2.2,1.8,3.9,3.9,3.9s3.9-1.8,3.9-3.9C397,132.5,395.2,130.7,393.1,130.7"/>
<path id="logo_3_" class="st0" d="M292.8,155.3c-2,3.5-5.7,6-10.1,6c-6.4,0-11.5-5.2-11.5-11.5c0-6.4,5.2-11.5,11.5-11.5
	c4.3,0,8.1,2.4,10,5.9l5.4-5.4c-3.4-4.8-9.1-7.9-15.4-7.9c-10.5,0-19,8.5-19,19c0,10.5,8.5,19,19,19c6.4,0,12-3.2,15.5-8
	L292.8,155.3L292.8,155.3z M160.2,161.3c-6.4,0-11.5-5.2-11.5-11.5c0-6.4,5.2-11.5,11.5-11.5c6.4,0,11.5,5.2,11.5,11.5
	C171.8,156.1,166.6,161.3,160.2,161.3 M160.2,130.8c-10.5,0-19,8.5-19,19c0,10.5,8.5,19,19,19c10.5,0,19-8.5,19-19
	C179.2,139.3,170.7,130.8,160.2,130.8 M374.4,131.6l-9.4,15.3l-9.4-15.3H347v36h7.7v-23.5l8.2,12.5c0.9,1.4,3,1.4,4,0l8.2-12.5v23.5
	h7.7v-36C382.9,131.6,374.4,131.6,374.4,131.6z M239.2,160.9h-6.5v-22.5h6.5c7.4,0,11.3,4.9,11.3,11.3
	C250.5,155.8,246.4,160.9,239.2,160.9 M239.2,131.7h-14.2v36h14.2c11.3,0,19.1-7.1,19.1-18S250.5,131.7,239.2,131.7 M194.2,154.8
	l5.6-15.5l5.6,15.5H194.2z M195,131.7l-13.9,36h8.7l2.3-6.1h15.4l2.2,6.1h8.7l-13.9-36H195z M122.7,148.1h-8v-9.7h8
	c3.1,0,5.4,1.8,5.4,4.9S125.8,148.1,122.7,148.1 M135.9,143.3c0-6.7-4.6-11.6-12.1-11.6H107v36h7.7v-12.8h5.6l7.1,12.8h8.8
	l-8.1-13.7C131.9,153,135.9,149.6,135.9,143.3 M87.8,161H78v-8.4h9.9c3,0,4.6,1.9,4.6,4.2C92.5,159.4,90.7,161,87.8,161 M78,138.2
	h9.6c2.6,0,4.2,1.7,4.2,3.9c0,2.3-1.6,3.9-4.2,3.9H78L78,138.2L78,138.2z M93.4,149.1c3.4-0.7,6.2-3.7,6.2-8.3
	c0-4.8-3.5-9.2-10.4-9.2H70.3v36h19.5c6.9,0,10.5-4.3,10.5-9.7C100.3,153.4,97.2,149.7,93.4,149.1 M322.7,161.3
	c-6.4,0-11.5-5.2-11.5-11.5c0-6.4,5.2-11.5,11.5-11.5c6.4,0,11.5,5.2,11.5,11.5C334.2,156.1,329,161.3,322.7,161.3 M322.7,130.8
	c-10.5,0-19,8.5-19,19c0,10.5,8.5,19,19,19c10.5,0,19-8.5,19-19C341.6,139.3,333.1,130.8,322.7,130.8"/>
<path id="logo_2_" class="st1" d="M48.4,161.1c-1,0.3-1.9,0.9-2.8,1.5c-1.7,1.1-3.6,2.3-6,2.3c-3.6,0-6.1-2.1-6.9-5.9
	c-0.6-2.9-2.9-13.9-2.9-13.9c-0.9,4.5-2.3,11-2.9,13.9c-0.8,3.7-3.3,5.9-6.9,5.9c-2.4,0-4.3-1.2-6-2.3c-0.9-0.6-1.8-1.2-2.8-1.5
	c-1-0.3-2.1-0.3-3.1,0c-0.7,0.2-1.4,0.5-2.1,0.9c4.4,8.8,13.2,14.8,23.7,14.8c10.5,0,19.7-6,24.1-14.8c-0.7-0.3-1.4-0.6-2.1-0.9
	C50.5,160.7,49.4,160.7,48.4,161.1 M29.7,123.3C15,123.3,3,135.2,3,150c0,2.8,0.4,5.5,1.2,8.1c0.6-0.3,1.3-0.6,1.9-0.9
	c3.1-1.2,5.9-0.8,8.7,0.9c0,0,1,0.6,1.3,0.8c1.3,0.8,2.5,1.6,3.7,1.6c1.1,0,2.2-0.3,2.7-2.5c0.7-3.4,2.5-11.8,3.3-15.9
	c0.5-2.4,0.7-3.8,1-4.6c0.5-1.6,1.3-2.4,2.5-2.6c0,0,0.2,0,0.4,0c0.2,0,0.3,0,0.3,0c1.2,0.1,2,1,2.5,2.6c0.3,0.9,0.5,2.2,1,4.6
	c0.8,4.2,2.6,12.5,3.3,15.9c0.5,2.2,1.6,2.5,2.7,2.5c1.2,0,2.4-0.8,3.7-1.6c0.3-0.2,1.3-0.8,1.3-0.8c2.8-1.7,5.6-2.1,8.7-0.9
	c0.7,0.3,1.3,0.6,1.9,0.9c0.8-2.5,1.2-5.3,1.2-8.1C56.4,135.2,44.5,123.3,29.7,123.3"/>
<path id="logo_1_" class="st2" d="M53.3,157.2c-3.1-1.2-5.9-0.8-8.7,0.9c0,0-1,0.6-1.3,0.8c-1.3,0.8-2.5,1.6-3.7,1.6
	c-1.1,0-2.2-0.3-2.7-2.5c-0.7-3.4-2.5-11.8-3.3-15.9c-0.5-2.4-0.7-3.8-1-4.6c-0.5-1.6-1.3-2.4-2.5-2.6c0,0-0.2,0-0.3,0
	c-0.2,0-0.4,0-0.4,0c-1.2,0.1-2,1-2.5,2.6c-0.3,0.9-0.5,2.2-1,4.6c-0.8,4.2-2.6,12.5-3.3,15.9c-0.5,2.2-1.6,2.5-2.7,2.5
	c-1.2,0-2.4-0.8-3.7-1.6c-0.3-0.2-1.3-0.8-1.3-0.8c-2.8-1.7-5.6-2.1-8.7-0.9c-0.7,0.3-1.3,0.6-1.9,0.8c0.4,1.3,0.9,2.6,1.6,3.8
	c0.7-0.3,1.4-0.6,2.1-0.8c1-0.3,2.1-0.3,3.1,0c1,0.3,1.9,0.9,2.8,1.5c1.7,1.1,3.6,2.3,6,2.3c3.6,0,6.1-2.1,6.9-5.9
	c0.6-2.9,2-9.4,2.9-13.9c0,0,2.3,10.9,2.9,13.9c0.8,3.7,3.3,5.9,6.9,5.9c2.4,0,4.3-1.2,6-2.3c0.9-0.6,1.8-1.2,2.8-1.5
	c1-0.3,2.1-0.3,3.1,0c0.7,0.2,1.4,0.5,2.1,0.8c0.6-1.2,1.1-2.5,1.6-3.8C54.5,157.8,53.9,157.5,53.3,157.2"/>
</svg>
