<?xml version="1.0" encoding="utf-8"?>
<!-- Generator: Adobe Illustrator 14.0.0, SVG Export Plug-In . SVG Version: 6.00 Build 43363)  -->
<!DOCTYPE svg PUBLIC "-//W3C//DTD SVG 1.1//EN" "http://www.w3.org/Graphics/SVG/1.1/DTD/svg11.dtd">
<svg version="1.1" id="comcast" xmlns="http://www.w3.org/2000/svg" xmlns:xlink="http://www.w3.org/1999/xlink" x="0px" y="0px"
	 width="400px" height="300px" viewBox="0 0 400 300" enable-background="new 0 0 400 300" xml:space="preserve">
<g>
	<path fill="#FFFFFF" d="M200.323,86.014c1.312-2.139,3.483-4.377,5.824-5.323c4.028-1.833,9.428-1.045,12.714,1.855
		c3.182,2.881,4.794,6.831,4.033,11.246c0.779-0.144,1.567-0.644,2.394-0.928c4.938-1.393,10.157,0.118,13.323,4.351
		c2.378,3.022,2.999,7.716,1.571,11.367c-0.708,1.836-1.916,3.487-3.486,4.896l0.158,0.159c4.593,0.223,9.107,3.79,10.5,8.163
		c1.511,4.412,0.182,9.125-3.044,12.352c-2.636,2.605-6.024,3.507-9.792,3.432h-68.393c-5.616,0.12-9.955-2.367-12.291-7.361
		c-1.833-4.286-0.929-9.769,2.494-13.036c2.158-2.257,4.862-3.181,7.777-3.646c-3.301-3.063-4.892-7.254-3.964-11.749
		c0.663-3.643,3.768-7.331,7.334-8.603c3.142-1.25,7.398-1.03,10.276,0.666l0.103-0.125c-0.867-4.957,1.329-9.428,5.44-12.17
		c3.666-2.479,9.525-2.416,13.115,0.22C198.026,82.765,199.354,84.462,200.323,86.014"/>
	<path fill="#645FAA" d="M219.687,87.866c1.47,2.965,0.606,6.85-0.927,9.511l-11.867,26.698l-0.104,0.125l-4.288-27.084
		c-0.346-2.601,2.435-3.71,4.069-4.96c-0.084-0.382-0.504-0.363-0.769-0.541l-4.01-0.042l-0.122-0.121
		c0.022-3.362,1.833-6.467,4.899-8.099c3.204-1.852,7.716-1.348,10.495,1.026C218.195,85.386,219.146,86.555,219.687,87.866"/>
	<path fill="#C9234A" d="M197.824,86.938c0.971,1.795,1.53,3.832,1.189,6.088l-4.838,31.011c0.025,0.038-0.02,0.08-0.059,0.099
		l-1.253-2.496l-12.128-27.083c-1.129-3.487-0.083-7.133,2.458-9.633c2.561-2.597,6.771-3.302,10.117-1.893
		C195.084,83.796,196.776,85.204,197.824,86.938"/>
	<path fill="#0089CF" d="M237.241,99.993c1.631,2.783,1.266,6.994-0.55,9.576c-1.124,1.813-2.979,2.718-4.552,3.907l-25.129,17.25
		h-0.059l0.28-0.824l13.32-30.067c1.996-3.544,5.805-5.339,9.834-4.798C233.148,95.542,235.908,97.335,237.241,99.993"/>
	<path fill="#F36F21" d="M180.153,99.835l13.862,30.888h-0.223l-27.947-19.26c-2.844-2.396-4.01-5.986-3.044-9.614
		c0.723-2.719,2.979-5.259,5.664-6.267C172.86,93.973,177.813,95.684,180.153,99.835"/>
	<path fill="#0DB14B" d="M244.533,121.8c1.394,2.941,0.846,6.971-1.146,9.473c-1.977,2.396-4.619,3.707-7.721,3.624l-29.799,0.019
		l24.962-17.367c2.439-1.573,6.146-1.856,8.81-0.584C241.694,117.771,243.629,119.785,244.533,121.8"/>
	<path fill="#FDB913" d="M156.293,121.8c-1.39,2.941-0.845,6.971,1.15,9.473c1.977,2.396,4.611,3.707,7.716,3.624l29.8,0.019
		l-24.964-17.367c-2.438-1.573-6.145-1.856-8.803-0.584C159.135,117.771,157.201,119.785,156.293,121.8"/>
	<path d="M102.783,152.753c-14.479,0-26.246,11.775-26.246,26.256c0,14.476,11.768,26.258,26.246,26.258
		c14.479,0,26.256-11.782,26.256-26.258C129.038,164.529,117.262,152.753,102.783,152.753 M102.783,200.093
		c-11.627,0-21.09-9.461-21.09-21.084c0-11.621,9.463-21.084,21.09-21.084c11.628,0,21.091,9.463,21.091,21.084
		C123.874,190.634,114.411,200.093,102.783,200.093"/>
	<path d="M329.147,179.341c-1.408-0.737-9.977-5.148-11.207-5.789c-4.494-2.299-6.088-4.328-6.088-7.766
		c0-4.777,3.923-7.863,10.007-7.863c3.57,0,7.023,1.57,9.05,2.711c0.367,0.199,0.804,0.313,1.258,0.313
		c1.416,0,2.578-1.162,2.578-2.579c0-0.954-0.522-1.791-1.291-2.236c-2.553-1.424-6.902-3.375-11.595-3.375
		c-8.938,0-15.176,5.354-15.176,13.029c0,6.887,4.528,10.137,8.959,12.4c1.241,0.633,9.908,5.1,11.207,5.785
		c3.423,1.791,5.315,4.479,5.315,7.572c0,4.146-3.514,8.555-10.015,8.555c-6.324,0-11.233-4.241-12.59-5.549l-0.405-0.386
		l-3.82,3.483l0.446,0.445c1.696,1.683,7.898,7.172,16.369,7.172c9.496,0,15.172-6.979,15.172-13.721
		C337.322,186.509,334.347,182.06,329.147,179.341"/>
	<path d="M48.957,157.925c5.638,0,10.935,2.197,14.911,6.17c0.945,0.941,2.726,0.941,3.656,0c0.493-0.481,0.753-1.129,0.753-1.821
		c0-0.687-0.261-1.341-0.753-1.821l-0.317-0.326c-4.915-4.756-11.4-7.371-18.25-7.371c-14.473,0-26.248,11.779-26.248,26.252
		c0,14.479,11.775,26.262,26.248,26.262c7.64,0,14.523-3.278,19.32-8.504l-3.653-3.658c-3.862,4.287-9.451,6.99-15.668,6.99
		c-11.624,0-21.086-9.467-21.086-21.09C27.87,167.392,37.332,157.925,48.957,157.925"/>
	<path d="M226.927,157.925c5.631,0,10.935,2.197,14.91,6.17c0.941,0.941,2.723,0.941,3.653,0c0.492-0.481,0.766-1.129,0.766-1.821
		c0-0.687-0.272-1.341-0.766-1.821l-0.313-0.326c-4.926-4.756-11.404-7.371-18.25-7.371c-14.476,0-26.255,11.778-26.255,26.25
		c0,14.479,11.779,26.264,26.255,26.264c7.637,0,14.521-3.278,19.325-8.506l-3.658-3.656c-3.861,4.285-9.458,6.988-15.667,6.988
		c-11.628,0-21.095-9.465-21.095-21.088C205.833,167.392,215.3,157.925,226.927,157.925"/>
	<path d="M182.457,152.753c-0.971,0-1.734,0.625-2.151,1.433c-0.424,0.806-15.448,37.97-15.452,37.97
		c0,0-15.024-37.164-15.444-37.97c-0.42-0.808-1.185-1.433-2.153-1.433c-1.133,0-1.984,0.834-2.284,1.883
		c-0.299,1.057-8.776,47.828-8.776,47.828c-0.03,0.152-0.045,0.313-0.045,0.475c0,1.287,1.049,2.328,2.329,2.328
		c1.136,0,2.083-0.811,2.287-1.881l7.342-40.02c0,0,14.165,34.994,14.578,35.826c0.417,0.829,1.189,1.479,2.173,1.479
		c0.984,0,1.753-0.648,2.166-1.479c0.417-0.833,14.582-35.826,14.582-35.826l7.629,41.612h4.741c0,0-8.932-49.287-9.23-50.343
		C184.44,153.587,183.589,152.753,182.457,152.753"/>
	<path d="M275.798,152.757c-0.98-0.004-1.741,0.637-2.169,1.469c-0.425,0.83-19.443,47.805-19.443,47.805
		c-0.113,0.275-0.178,0.583-0.178,0.908c0,1.287,1.042,2.333,2.329,2.333c0.979,0,1.82-0.613,2.166-1.479l7.383-18.164h19.829
		l7.876,19.353h5.031c0,0-20.241-49.925-20.657-50.753C277.551,153.392,276.781,152.753,275.798,152.757 M267.989,180.458
		l7.809-19.197l7.814,19.197H267.989z"/>
	<path d="M375.409,153.033h-29.229c-1.424,0-2.579,1.159-2.579,2.586c0,1.42,1.155,2.578,2.579,2.578h12.252v46.776h4.733v-46.775
		h12.244c1.425,0,2.591-1.159,2.591-2.579C378,154.192,376.834,153.033,375.409,153.033"/>
</g>
</svg>
