<?xml version="1.0" encoding="utf-8"?>
<!-- Generator: Adobe Illustrator 23.0.3, SVG Export Plug-In . SVG Version: 6.00 Build 0)  -->
<svg version="1.1" id="logosvg.com" xmlns="http://www.w3.org/2000/svg" xmlns:xlink="http://www.w3.org/1999/xlink" x="0px"
	 y="0px" viewBox="0 0 400 300" style="enable-background:new 0 0 400 300;" xml:space="preserve">
<style type="text/css">
	.st0{fill:#C61B31;}
</style>
<path id="logo" class="st0" d="M97.5,124.4h-2.4c-17.2,0.2-26.2,7.3-28.1,21l-1.1,8.9c-0.7,6.1,0.4,10.7,3.3,14
	c3.7,4.1,10.1,7.1,19.8,7.2h2.4c16.8-0.2,25.8-7.1,27.9-19.9l0.1-0.9l1.1-8.9c0.8-6.4-0.4-11.1-3.4-14.5
	C113.5,127.3,107.1,124.5,97.5,124.4z M106.5,145.9l-1.1,8.1c-0.3,3-1.3,5.9-3,8.4c-2.2,2.7-5.4,4.4-10,4.4h-2.6
	c-4.5,0-7.8-1.6-9.2-4.1c-0.9-1.9-1.2-4.7-0.7-8.3l1.1-8.1c0.6-4.4,2-7.6,4.2-9.8s5.4-3.2,9.2-3.2h2.5c2.6,0,6.1,0.4,8,3
	C106.5,138.5,107,141.6,106.5,145.9L106.5,145.9z M40.2,125.5h22c0,0-1.4,9-9,9H42.3c-6.7,0-9.3,1.6-10.4,2.4c-1.7,1.3-3.1,3-3.8,5
	c-0.5,1.5-0.9,3.1-1.2,4.8l-1,7.5c-0.2,1.8-0.3,3.5-0.1,5.3c0.3,2.5,2,4.7,4.5,5.4c2.3,0.7,4.7,1,7.1,0.9h19.7c0,0-1,9-9.6,9H32.6
	c-8.4,0-14.1-3-17.4-6.7c-2.9-3.2-3.9-7.6-3.2-13.6l1.1-8.6c1.6-11.3,8.1-18,20.4-19.8C35.7,125.8,37.9,125.6,40.2,125.5z
	 M384.6,131.4L384.6,131.4c-3.7-4.1-10.1-6.9-19.7-7h-2.4c-17.2,0.2-26.2,7.3-28.1,21l-1.1,8.9c-0.7,6.1,0.4,10.7,3.3,14
	c3.7,4.1,10.1,7.1,19.8,7.2h2.4c16.9-0.2,25.8-7.1,28-19.9l0.1-0.9l1.1-8.9C388.8,139.6,387.7,134.8,384.6,131.4z M373.9,145.9
	l-1.1,8.1c-0.2,3-1.3,5.9-3,8.4c-2.1,2.7-5.4,4.4-9.9,4.4h-2.7c-4.5,0-7.8-1.6-9.2-4.1c-0.9-1.9-1.2-4.7-0.7-8.3l1.1-8.1
	c0.6-4.4,2-7.6,4.2-9.8s5.4-3.2,9.2-3.2h2.5c2.6,0,6.1,0.4,8,3C373.9,138.5,374.5,141.6,373.9,145.9L373.9,145.9z M189.8,125.5h6.2
	l-5.2,41.9c-0.3,2-1.3,3.9-2.8,5.3c-1.4,1.2-3.3,1.9-5.2,1.9h-7.1l3.6-28.6l-14.9,18.8c-0.4,0.5-1.8,2.1-3.5,2.1h-0.1
	c-1.6,0-2.8-1.6-3.2-2.3l-9.8-18.6l-2.7,21.5c-0.3,2-1.3,3.9-2.8,5.3c-1.4,1.3-3.3,1.9-5.1,1.9h-7.3l6-49.1h6c3.8,0,6.4,1,7.7,3
	l13.3,21.2l18.9-21.5l0,0C183.4,126.4,186.1,125.5,189.8,125.5z M318.3,132.3c3,3.4,4.1,7.9,3.4,13.8c0,0-1.2,9.8-1.3,10.4
	c-0.4,2.8-1.3,5.6-2.7,8.1c-2.4,3.9-7,10.1-24.1,10.1h-16.8c-5.8,0-8.5-2-8-5.7l1.8-13.7l1.9-15.6h7.2c5.2,0,6.6,4.5,6.2,7.2
	l-2.3,19h8.3c6.3,0,13.3-1.4,14.6-11.3l1-7.6c1.3-9.5-3.3-12.4-11.8-12.4H281c-5.5,0-6.6-4.1-6.7-7.4v-1.5h21.9
	C307.1,125.5,314.3,127.8,318.3,132.3L318.3,132.3z M236.2,124.4h-2.4c-17.2,0.2-26.2,7.3-28.1,21l-1.1,8.9
	c-0.7,6.1,0.4,10.7,3.3,14c3.7,4.1,10.1,7.1,19.8,7.2h2.4c16.9-0.2,25.8-7.1,28-19.9l0.1-0.9l1.1-8.9c0.8-6.4-0.4-11.1-3.4-14.5
	C252.2,127.3,245.8,124.5,236.2,124.4L236.2,124.4z M245.2,145.9l-1.1,8.1c-0.2,3-1.3,5.9-3,8.4c-2.1,2.7-5.4,4.4-9.9,4.4h-2.7
	c-4.5,0-7.8-1.6-9.1-4.1c-0.9-1.9-1.2-4.7-0.7-8.3l1.1-8.1c0.6-4.4,2-7.6,4.2-9.8s5.4-3.2,9.2-3.2h2.5c2.6,0,6.1,0.4,8,3
	C245.3,138.5,245.8,141.6,245.2,145.9L245.2,145.9z"/>
</svg>
