<?xml version="1.0" encoding="utf-8"?>
<!-- Generator: Adobe Illustrator 23.0.3, SVG Export Plug-In . SVG Version: 6.00 Build 0)  -->
<svg version="1.1"
	 id="logosvg.com" xmlns:cc="http://creativecommons.org/ns#" xmlns:dc="http://purl.org/dc/elements/1.1/" xmlns:rdf="http://www.w3.org/1999/02/22-rdf-syntax-ns#" xmlns:svg="http://www.w3.org/2000/svg"
	 xmlns="http://www.w3.org/2000/svg" xmlns:xlink="http://www.w3.org/1999/xlink" x="0px" y="0px" viewBox="0 0 400 300"
	 style="enable-background:new 0 0 400 300;" xml:space="preserve">
<style type="text/css">
	.st0{fill:#00AEEF;}
	.st1{fill:#FFBE0D;}
	.st2{fill:#FE4A49;}
	.st3{fill:#3DDC97;}
</style>
<path id="blue" class="st0" d="M31.6,138.8c-0.2,1.3-0.6,2.5-1,3.8c-0.8,2.5-1.5,5.5-1.5,8.4s0.9,5.9,1.5,8.4c0.4,1.3,0.8,2.6,1,3.8
	c0.2,1-0.3,1.9-1.2,2.4c-0.9,0.5-1.9,0.3-2.7-0.4l-11.3-11.4c-0.9-0.8-1.3-1.9-1.3-3c0-1.1,0.4-2.1,1.3-3l11.3-11.3
	c0.8-0.8,1.7-0.9,2.7-0.4C31.4,136.9,31.8,137.8,31.6,138.8z"/>
<path id="yellow" class="st1" d="M38.2,169.8c1.3,0.2,2.5,0.6,3.8,1c2.5,0.8,5.5,1.5,8.4,1.5c3,0,5.9-0.9,8.4-1.5
	c1.3-0.4,2.6-0.8,3.8-1c1-0.2,1.9,0.3,2.4,1.2s0.3,1.9-0.4,2.7L53.3,185c-0.8,0.8-1.8,1.3-3,1.3s-2.1-0.4-3-1.3l-11.2-11.4
	c-0.8-0.8-0.9-1.7-0.4-2.7C36.2,170.1,37.2,169.6,38.2,169.8z"/>
<path id="red" class="st2" d="M62.7,132.2c-1.3-0.2-2.5-0.6-3.8-1c-2.5-0.8-5.5-1.5-8.4-1.5c-2.9,0-5.9,0.9-8.4,1.5
	c-1.3,0.4-2.6,0.8-3.8,1c-1,0.2-1.9-0.3-2.4-1.2c-0.5-0.9-0.3-1.9,0.4-2.7L47.6,117c0.8-0.8,1.8-1.2,2.9-1.2s2.1,0.4,3,1.3
	l11.4,11.4c0.8,0.8,0.9,1.7,0.4,2.7C64.6,132,63.6,132.4,62.7,132.2z"/>
<path id="green" class="st3" d="M69.1,163.2c0.2-1.3,0.6-2.5,1-3.8c0.8-2.5,1.5-5.5,1.5-8.4s-0.9-5.9-1.5-8.4
	c-0.4-1.3-0.8-2.6-1-3.8c-0.2-1,0.3-1.9,1.2-2.4c0.9-0.5,1.9-0.3,2.7,0.4l11.4,11.4c0.8,0.8,1.3,1.8,1.3,3c0,1.1-0.4,2.1-1.3,3
	L73,165.3c-0.8,0.8-1.7,0.9-2.7,0.4C69.4,165.1,69,164.3,69.1,163.2z"/>
<path id="text" d="M233.6,134.2h9.1l-12.1,21.3v0.1v0.1v12h-8.8v-12v-0.1v-0.1l-12.2-21.3h9.1l7.2,12.6l0.2,0.4l0.2-0.4L233.6,134.2
	z M383.1,134.2L383.1,134.2L383.1,134.2L383.1,134.2z M370,148.9l13-14.7h-9.4l-12.9,14.5v-14.5h-8.6v33.4h8.6v-8.4l3.7-4.1
	l9.4,12.5h10L370,148.9z M304.8,167.6h26.7v-7.4h-18.1v-5.7h18.1v-7.3h-18.1v-5.7h18.1v-7.3h-26.7V167.6z M257.5,141.5h9.9v26.1h9.1
	v-26.1h9.9v-7.3h-29.1L257.5,141.5L257.5,141.5z M113.9,150.6v0.6c0,9,7.4,16.5,16.5,16.5h14.9v-7.9h-13.6c-4.9,0-8.9-4-8.9-8.9
	c0-4.9,4-8.9,8.9-8.9h13.6v-7.9h-14.9C121.3,134.2,113.9,141.6,113.9,150.6z M190.6,157.6l6.4,9.9h-9.2l-5.1-7.8h-7.7v7.8h-8.7
	v-33.4h17l0,0c6.8,0,12.5,5.6,12.5,12.5v0.7c0,4-1.9,7.8-5.2,10.1L190.6,157.6L190.6,157.6L190.6,157.6z M187.9,146.7
	c0-2.8-2.3-5.1-5.1-5.1h-7.5v10.9h7.5c2.8,0,5.1-2.3,5.1-5.1V146.7z"/>
</svg>
