<?xml version="1.0" encoding="utf-8"?>
<!-- Generator: Adobe Illustrator 23.0.3, SVG Export Plug-In . SVG Version: 6.00 Build 0)  -->
<svg version="1.1"
	 id="logosvg.com" xmlns:cc="http://creativecommons.org/ns#" xmlns:dc="http://purl.org/dc/elements/1.1/" xmlns:rdf="http://www.w3.org/1999/02/22-rdf-syntax-ns#" xmlns:svg="http://www.w3.org/2000/svg"
	 xmlns="http://www.w3.org/2000/svg" xmlns:xlink="http://www.w3.org/1999/xlink" x="0px" y="0px" viewBox="0 0 400 300"
	 style="enable-background:new 0 0 400 300;" xml:space="preserve">
<style type="text/css">
	.st0{fill:#646569;}
	.st1{fill:#C6093B;}
</style>
<path id="text" class="st0" d="M151.4,125.5c-18.4,0-26.8,12.1-26.8,23.4c0,6.5,2.4,12.5,6.6,16.4c4.7,4.4,10.9,6.5,18.9,6.5
	c7,0,12.7-1.7,15.5-2.8l0.7-0.2v-21.4h-7.8v16.6c-1.1,0.4-3.5,1-8,1c-10.9,0-17.9-6.5-17.9-16.5c0-10,7.2-16.4,18.5-16.4
	c4.2,0,7.5,0.7,10.7,2.1l1,0.4l2.1-6.5l-0.8-0.3C161.9,126.8,157.1,125.5,151.4,125.5z M329.9,125.6v6.5l14.8,0.1
	c6.8,0,11.9,1.7,15.1,4.9c2.6,2.6,3.9,6.3,3.9,10.8c0,5-1.5,9.2-4.5,12.1c-3.4,3.5-8.9,5.2-15.6,5.2c-2,0-4.3,0-6-0.2v-20.5h-7.8
	v26.8l0.9,0.1c3.4,0.3,7.1,0.6,11.8,0.6c9.6,0,17.6-2.5,22.3-7.1c4.5-4.4,6.9-10.5,6.9-17.1c0-6.4-2.2-11.7-6.6-15.7
	c-4.5-4.2-11.5-6.4-20.7-6.4L329.9,125.6L329.9,125.6z M179.9,126v45.4h7.8V126H179.9z M241,126v45.4h28.8v-6.7h-21v-13.5h18.8v-6.7
	h-18.8v-11.7h19.9V126H241z M295.7,126l-17.1,45.4h7.9l5-13.9h16l5.3,13.9h8L303.4,126L295.7,126L295.7,126z M202.6,126v45.4h28.5
	v-6.9h-20.7V126H202.6z M299.3,134.9c0.4,1.4,4.8,12.9,6,16.2h-11.9C293.5,151.1,298.9,136.3,299.3,134.9z"/>
<path id="red" class="st1" d="M98.9,103.2c0,0.1-0.2,0.2-0.3,0.2v0.1c-18.7,6.5-37.3,31.3-44.7,59.8c-1.1,4.3-2,8.6-2.6,13
	c0,0-3,0.3,0.3-14.3c-19.2-12.9-11.8-53.4,47-59l0,0h0.1C98.8,102.9,98.9,103,98.9,103.2z M95.5,112.2L95.5,112.2L95.5,112.2
	L95.5,112.2z M95.5,112.2c-0.1,0-0.2,0.1-0.3,0.2c-4.9,9.5-6.2,23.1-9.9,33.6c-4.2,11.9-11.8,20-23.4,19.2v29c0,0-31-14.1-31-36.6
	v-42.3l25.3-2.4h0.1c0.1,0,0.2-0.1,0.2-0.2c0-0.2-0.1-0.3-0.2-0.3H28.2v45.1c0,25.4,33.8,39.5,33.8,39.5s33.9-14.3,33.9-39.5v-45.1
	C95.8,112.4,95.7,112.2,95.5,112.2z"/>
</svg>
