<?xml version="1.0" encoding="utf-8"?>
<!-- Generator: Adobe Illustrator 23.0.3, SVG Export Plug-In . SVG Version: 6.00 Build 0)  -->
<svg version="1.1"
	 id="logosvg.com" sodipodi:docname="loblawsCR.svg" xmlns:cc="http://creativecommons.org/ns#" xmlns:dc="http://purl.org/dc/elements/1.1/" xmlns:inkscape="http://www.inkscape.org/namespaces/inkscape" xmlns:rdf="http://www.w3.org/1999/02/22-rdf-syntax-ns#" xmlns:sodipodi="http://sodipodi.sourceforge.net/DTD/sodipodi-0.dtd" xmlns:svg="http://www.w3.org/2000/svg"
	 xmlns="http://www.w3.org/2000/svg" xmlns:xlink="http://www.w3.org/1999/xlink" x="0px" y="0px" viewBox="0 0 400 300"
	 style="enable-background:new 0 0 400 300;" xml:space="preserve">
<style type="text/css">
	.st0{fill:#FF0000;}
	.st1{fill:#FF7F00;}
</style>
<path id="red" inkscape:connector-curvature="0" class="st0" d="M75.6,154.5c0,0-15.3,0-16.6,0c-24.4,0.5-23.2-20.3-23.2-20.3v-17.9
	H6.9V145c0,4,3.8,38.6,39.7,38.6c21.4,0,29,0,29,0L75.6,154.5"/>
<path id="orange" class="st1" d="M38.8,116.4v16c0,0-2.4,19.5,18.6,19.3c2.8,0,18.1,0,18.1,0v-12.6h-8.1c0,0-15.6,2-15.4-10
	c0-1.5,0-12.7,0-12.7H38.8 M55.5,116.4V127c0,0-1.2,9.4,11.2,9.1c1.4,0,8.9,0,8.9,0v-9.3h-5c0,0-6.1,0.4-6-6.4c0-2.2,0-4,0-4
	L55.5,116.4 M67.9,116.4h7.7v7.4c0,0-7.7,1.2-7.7-3C67.9,117.6,67.9,116.4,67.9,116.4"/>
<path id="text" inkscape:connector-curvature="0" d="M376.7,151.7c-8.1-1.8-16-2.5-16-7.4c0-4,4.6-4.6,7.8-4.6c5,0,9.3,1.4,9.7,6.8
	h13.4c-1.1-12.3-11.4-16-22.7-16c-5.2,0-10.5,0.8-14.6,2.9l0.5-1.5h-14.5l-9.4,33.9h-0.2l-8.8-33.9h-13.7l-8.5,33.9h-0.2l-9.4-33.9
	h-14.9l0.5,1.3c-4.5-2-10.1-2.6-15.3-2.6c-0.6,0-1.1,0-1.6,0.1c-10.1,0.3-19.9,3.8-22.2,13.7v-27.8h-14.1v26.8
	c-3.8-8.7-11.4-12.7-18.6-12.7c-1.7,0-3.3,0.2-4.9,0.5c-4.6,1-8.7,3.2-11.3,6.9h-0.2v-21.5h-14.1V142c-4.3-7.3-12.4-11.6-22.7-11.6
	c-16.1,0-26.6,10.5-26.6,26.4c0,3.8,0.6,7.4,1.8,10.5c-4.5,0-10.1,0-14.4,0c-11.6,0-11.4-5.4-11.4-9.8v-41.2H85.9
	c0,0,0.2,40.8,0,48.7c0,15.8,12.4,16.3,23.2,16.3h24.2v-3.7c4.5,3.5,10.3,5.4,17.3,5.4c10.3,0,18.4-4.3,22.7-11.6v10.2h13.4v-6.4
	h0.2c2.4,4.3,6.7,6.6,12,7.4c1.5,0.2,3.2,0.3,4.9,0.3c7.2,0,14.8-4,18.6-12.7v11.3h14.1V176c3,4.8,8.8,7.1,15.5,7.1
	c2.2,0,4.5-0.2,6.7-0.7c4-0.8,7.7-2.6,10.6-5.5c0.1,1.7,0.5,3.4,1,4.9h14.4c-1.3-2-1.8-6.5-1.8-11.1v-15l8.5,26.1h14.6l8.8-33.5h0.2
	l9.1,33.5h14.6l9.5-29.5c2.8,4.4,8.7,6.2,14.7,7.5c10.1,2.2,16.1,3.6,16.1,7.7c0,4.9-5.2,6.4-9.3,6.4c-5.5,0-10.7-2.4-10.8-8.4
	h-13.4c0.6,13.2,12.2,17.6,24.2,17.6c11.7,0,23.5-4.2,23.5-17.4C393.1,156.5,385,153.5,376.7,151.7L376.7,151.7z M150.6,172.8
	c-9.6,0-12.5-8-12.5-15.9c0-8,2.9-16,12.5-16c9.5,0,12.4,8.1,12.4,16C163,164.8,160.1,172.8,150.6,172.8z M199,172.8L199,172.8
	c-8.4,0-12.1-7.7-12.1-15.9c0-8.5,3.7-16,12-16h0.1c8.3,0,12,7.6,12,16C211,165.2,207.3,172.8,199,172.8z M268.8,162.5
	c0,2.9-0.4,10.7-10.1,11.4c-0.5,0-1,0.1-1.4,0.1c-4.6,0-8.6-1.3-8.6-6.4c0-5,4-6.5,8.3-7.3c0.6-0.1,1.2-0.2,1.8-0.2
	c3.9-0.6,8-0.9,10.1-2.6L268.8,162.5L268.8,162.5z M258.8,152.2c-2.1,0.2-4.4,0.5-6.7,0.9c-6.1,0.8-12.4,2.4-15.5,7.3v-13.1h13.7
	c0.5-5.1,3.6-7.3,8.5-7.6c0.2,0,0.6,0,0.9,0c4.9,0,9.2,1,9.2,6.8C268.8,150.6,264.5,151.4,258.8,152.2z"/>
</svg>
