<?xml version="1.0" encoding="utf-8"?>
<!-- Generator: Adobe Illustrator 22.1.0, SVG Export Plug-In . SVG Version: 6.00 Build 0)  -->
<svg version="1.1"
	 id="logosvg.com" inkscape:version="0.92.0 r15299" sodipodi:docname="metlife.svg" xmlns:cc="http://creativecommons.org/ns#" xmlns:dc="http://purl.org/dc/elements/1.1/" xmlns:inkscape="http://www.inkscape.org/namespaces/inkscape" xmlns:rdf="http://www.w3.org/1999/02/22-rdf-syntax-ns#" xmlns:sodipodi="http://sodipodi.sourceforge.net/DTD/sodipodi-0.dtd" xmlns:svg="http://www.w3.org/2000/svg"
	 xmlns="http://www.w3.org/2000/svg" xmlns:xlink="http://www.w3.org/1999/xlink" x="0px" y="0px" viewBox="0 0 400 300"
	 style="enable-background:new 0 0 400 300;" xml:space="preserve">
<style type="text/css">
	.st0{fill:#99D538;}
	.st1{fill:#239DE0;}
	.st2{fill:#1563A9;}
</style>
<path id="logo_4_" transform="translate(149.0787,47.5818)" d="M216.8,107.2c0-0.8,0.2-1.7,0.5-2.5c0.4-0.8,0.9-1.6,1.6-2.3
	c0.7-0.7,1.5-1.3,2.6-1.8c1-0.5,2.2-0.7,3.6-0.7c1.4,0,2.5,0.2,3.5,0.7c1,0.5,1.8,1.1,2.5,1.8c0.7,0.7,1.1,1.5,1.5,2.3
	c0.3,0.9,0.5,1.7,0.5,2.5H216.8z M238.6,118.9c-0.9,0.7-2.3,1.4-4.2,2.3c-1.9,0.9-4.4,1.4-7.5,1.4c-3.1,0-5.6-0.8-7.4-2.3
	c-1.8-1.6-2.7-3.4-2.8-5.5h27.5v-2c0-3.2-0.4-6.2-1.2-8.9c-0.8-2.7-2-5-3.7-7c-1.6-1.9-3.6-3.5-6-4.6c-2.4-1.1-5.1-1.6-8.2-1.6
	c-3.1,0-5.9,0.6-8.4,1.7c-2.5,1.1-4.5,2.6-6.2,4.5c-1.7,1.9-3,4-3.9,6.5c-0.9,2.5-1.4,5.1-1.4,7.8c0,3.1,0.5,5.9,1.4,8.4
	c1,2.5,2.4,4.7,4.2,6.5c1.8,1.8,4.1,3.2,6.7,4.2c2.6,1,5.6,1.5,8.9,1.5c2.5,0,4.7-0.2,6.6-0.7c1.9-0.5,3.6-1,5-1.6
	c1.4-0.6,2.5-1.2,3.4-1.8c0.9-0.6,1.5-1.1,2-1.4L238.6,118.9z M107.6,120.3c-0.8,0.5-1.6,1-2.5,1.4c-0.9,0.4-1.9,0.6-3.1,0.6
	c-1.6,0-2.8-0.5-3.5-1.5c-0.7-1-1.1-2.5-1.1-4.3v-15.2h9.9V92h-9.9V81.7H85.5V92h-6.1v9.3h6.1v14.5c0,2.4,0.2,4.6,0.7,6.6
	c0.5,2,1.3,3.7,2.5,5.1c1.1,1.4,2.7,2.5,4.5,3.3c1.9,0.8,4.2,1.2,6.9,1.2c4.4,0,8.4-1.5,12.2-4.4L107.6,120.3z M210,78.3
	c-1.8-1.5-3.7-2.5-5.8-3.1c-2.1-0.6-4.2-0.9-6.3-0.9c-2,0-3.9,0.3-5.8,0.9s-3.6,1.6-5.1,2.9c-1.5,1.3-2.7,2.9-3.6,4.9
	c-0.9,2-1.4,4.3-1.4,7.1v2h-6.2v9.3h6.2v29.3h11.8v-29.3h9.1V92h-9.1v-2.1c0-1.9,0.5-3.4,1.5-4.4c1-1,2.3-1.6,3.9-1.6
	c1,0,2.1,0.2,3,0.5c1,0.3,1.9,0.8,2.7,1.4L210,78.3z M158,130.6h11.8V92h-5.9H158V130.6z M116.8,130.6h36.1v-10.2h-23.6V75.7h-12.4
	V130.6z M49.1,107.2c0-0.8,0.2-1.7,0.5-2.5c0.4-0.8,0.9-1.6,1.6-2.3c0.7-0.7,1.5-1.3,2.6-1.8c1-0.5,2.2-0.7,3.6-0.7
	c1.4,0,2.5,0.2,3.5,0.7c1,0.5,1.8,1.1,2.5,1.8c0.7,0.7,1.2,1.5,1.5,2.3c0.3,0.9,0.5,1.7,0.5,2.5H49.1z M70.9,118.9
	c-0.9,0.7-2.3,1.4-4.2,2.3c-1.9,0.9-4.4,1.4-7.5,1.4c-3.1,0-5.6-0.8-7.4-2.3c-1.8-1.6-2.7-3.4-2.8-5.5h27.5v-2
	c0-3.2-0.4-6.2-1.2-8.9c-0.8-2.7-2-5-3.7-7c-1.6-1.9-3.6-3.5-6-4.6c-2.4-1.1-5.1-1.6-8.2-1.6c-3.1,0-5.9,0.6-8.4,1.7
	c-2.5,1.1-4.5,2.6-6.2,4.5c-1.7,1.9-3,4-3.9,6.5c-0.9,2.5-1.4,5.1-1.4,7.8c0,3.1,0.5,5.9,1.4,8.4c1,2.5,2.4,4.7,4.2,6.5
	c1.8,1.8,4.1,3.2,6.7,4.2c2.6,1,5.6,1.5,8.9,1.5c2.5,0,4.7-0.2,6.6-0.7c1.9-0.5,3.6-1,5-1.6c1.4-0.6,2.5-1.2,3.4-1.8
	c0.9-0.6,1.5-1.1,2-1.4L70.9,118.9z M-24.3,130.6h11.8l1.4-35.6l12,21.1h6.4l11.3-21.4l1.6,35.8h12.4l-2.5-54.8H18.2l-14,25.7
	L-10,75.7h-11.8L-24.3,130.6z M163.9,87.6c-3.7,0-6.7-3-6.7-6.7c0-3.7,3-6.7,6.7-6.7c3.7,0,6.7,2.9,6.7,6.7
	C170.6,84.6,167.6,87.6,163.9,87.6"/>
<path id="logo_3_" inkscape:connector-curvature="0" class="st0" d="M51.8,135.4c9.3,12.3,14.8,27.7,14.8,44.3c0,4-0.3,8-0.9,11.8
	h27c2.3,0,4.2-1.9,4.2-4.3v-74.5c0-2.8-2.6-4.8-5.3-4.1C75.5,112.9,61.5,122.5,51.8,135.4"/>
<path id="logo_2_" inkscape:connector-curvature="0" class="st1" d="M37.9,191.5c-0.6-3.8-0.9-7.8-0.9-11.8c0-16.6,5.5-32,14.8-44.3
	C42,122.5,28.1,112.9,12,108.6c-2.7-0.7-5.3,1.3-5.3,4.1v74.5c0,2.3,1.9,4.3,4.2,4.3H37.9z"/>
<path id="logo_1_" inkscape:connector-curvature="0" class="st2" d="M51.8,135.4c-9.3,12.3-14.8,27.7-14.8,44.3c0,4,0.3,8,0.9,11.8
	h27.8c0.6-3.8,0.9-7.8,0.9-11.8C66.6,163.1,61.1,147.7,51.8,135.4"/>
</svg>
