<?xml version="1.0" encoding="utf-8"?>
<!-- Generator: Adobe Illustrator 23.0.3, SVG Export Plug-In . SVG Version: 6.00 Build 0)  -->
<svg version="1.1" id="logosvg.com" xmlns="http://www.w3.org/2000/svg" xmlns:xlink="http://www.w3.org/1999/xlink" x="0px"
	 y="0px" viewBox="0 0 400 300" style="enable-background:new 0 0 400 300;" xml:space="preserve">
<style type="text/css">
	.st0{fill-rule:evenodd;clip-rule:evenodd;fill:#D3002D;}
</style>
<path id="logo" class="st0" d="M90.8,125.5c0,4.2-3.4,7.6-7.6,7.6s-7.6-3.4-7.6-7.6c0-4.2,3.4-7.6,7.6-7.6S90.8,121.2,90.8,125.5z
	 M76.4,150.2c0,17.9-14.5,32.4-32.4,32.4c-17.9,0-32.4-14.5-32.4-32.4c0-17.9,14.5-32.4,32.4-32.4C62,117.8,76.4,132.3,76.4,150.2z
	 M66.1,150.2c0-6.1-2.5-11.6-6.4-15.6c-4-4-9.5-6.4-15.6-6.4c-6.1,0-11.6,2.5-15.6,6.4c-4,4-6.4,9.5-6.4,15.6
	c0,6.1,2.5,11.6,6.4,15.6c4,4,9.5,6.4,15.6,6.4c6.1,0,11.6-2.5,15.6-6.4C63.6,161.7,66.1,156.3,66.1,150.2z M134.5,154.3l16.1,26.7
	h-12.1l-15.6-25.9h-14.4V181H98.1v-62.1h31.2c10,0,18.1,8.1,18.1,18.1C147.4,145.2,142,152.1,134.5,154.3z M129.3,144.7
	c4.3,0,7.8-3.5,7.8-7.8c0-4.3-3.5-7.8-7.8-7.8h-20.9v15.5H129.3z M339.6,141.9l-15.9-23.1h-12.6l23.3,33.8V181h10.4v-28.3l23.3-33.8
	h-12.6L339.6,141.9z M388,125.1c0,4.2-3.4,7.7-7.7,7.7c-4.2,0-7.7-3.4-7.7-7.7c0-4.2,3.4-7.7,7.7-7.7
	C384.6,117.5,388,120.9,388,125.1z M386.8,125.1c0-3.6-2.9-6.4-6.4-6.4c-3.6,0-6.4,2.9-6.4,6.4c0,3.6,2.9,6.4,6.4,6.4
	C383.9,131.6,386.8,128.7,386.8,125.1z M382.1,125.6l1.6,3.3h-1.4l-1.6-3.3h-2.2v3.3h-1.3v-7.8h4.3c1.3,0,2.3,1,2.3,2.3
	C383.8,124.5,383.1,125.4,382.1,125.6z M382.5,123.4c0-0.5-0.4-1-1-1h-3v2h3C382,124.4,382.5,124,382.5,123.4z M157.8,181H201v-10.4
	h-32.8v-15.5h31.3v-10.4h-31.3v-15.5H201v-10.3h-43.2V181z M243.4,118.8H233V181h40.2v-10.4h-29.9V118.8z M292.1,118.8h-10.4V181
	h40.2v-10.4h-29.9V118.8z M211.9,181h10.4v-62.1h-10.4V181z"/>
</svg>
