<?xml version="1.0" encoding="utf-8"?>
<!-- Generator: Adobe Illustrator 23.0.3, SVG Export Plug-In . SVG Version: 6.00 Build 0)  -->
<svg version="1.1"
	 id="logosvg.com" inkscape:version="0.92.0 r15299" sodipodi:docname="philo.svg" xmlns:cc="http://creativecommons.org/ns#" xmlns:dc="http://purl.org/dc/elements/1.1/" xmlns:inkscape="http://www.inkscape.org/namespaces/inkscape" xmlns:rdf="http://www.w3.org/1999/02/22-rdf-syntax-ns#" xmlns:sodipodi="http://sodipodi.sourceforge.net/DTD/sodipodi-0.dtd" xmlns:svg="http://www.w3.org/2000/svg"
	 xmlns="http://www.w3.org/2000/svg" xmlns:xlink="http://www.w3.org/1999/xlink" x="0px" y="0px" viewBox="0 0 400 300"
	 style="enable-background:new 0 0 400 300;" xml:space="preserve">
<style type="text/css">
	.st0{fill:#0C93F2;}
</style>
<path id="logo" inkscape:groupmode="layer" inkscape:label="Layer 1" class="st0" d="M312,120.3c-15.6,0-28.2,12.3-28.2,27.4
	c0,15.2,12.6,27.4,28.2,27.4c15.6,0,28.2-12.3,28.2-27.4C340.2,132.6,327.5,120.3,312,120.3 M349.5,147.7
	c0,20.2-16.8,36.6-37.6,36.6s-37.6-16.4-37.6-36.6c0-20.2,16.8-36.6,37.6-36.6C332.7,111.1,349.5,127.5,349.5,147.7 M233.6,86
	c0,3.2-2.6,5.7-5.8,5.7s-5.8-2.6-5.8-5.7c0-3.2,2.6-5.7,5.8-5.7C231,80.3,233.6,82.8,233.6,86 M139.3,79.2c-0.4,0-0.8,0.4-0.8,0.8
	v0.3v99.2c0,2.5,2.1,4.4,4.7,4.4c2.6,0,4.7-1.8,4.7-4.2c0,0,0,0,0,0l-0.1-35.2c0.1-13.7,11.8-24.2,25.9-24.2
	c14.1,0,21.1,10.2,21.1,23.9V179c0,0.1,0,0.1,0,0.2c0,2.5,2.1,4.8,4.7,4.8c2.6,0,4.7-2,4.7-4.3v-36.9c0-24.8-16.4-31.7-30.5-31.7
	c-10.6,0-20,4.1-25.8,12.1V90.5C147.9,85.1,144.7,79.7,139.3,79.2L139.3,79.2z M223,179.7L223,179.7c0,2.3,2.1,4.6,4.7,4.6
	s4.7-2.3,4.7-4.6v0V123c0-5.4-3.2-10.8-8.5-11.3l0,0c-0.4,0-0.8,0.4-0.8,0.8L223,179.7z M251.2,179.7L251.2,179.7
	c0,2.3,2.1,4.6,4.7,4.6s4.7-2.3,4.7-4.6V90.5c0-5.4-3.2-10.8-8.5-11.3l0,0c-0.4,0-0.8,0.4-0.8,0.8L251.2,179.7z M59.8,209.5
	c0,5.4-3.2,10.8-8.5,11.3l0,0c-0.4,0-0.8-0.4-0.8-0.8c0,0,0-72.3,0-72.3c0-20.6,16.4-36.6,37.6-36.6c21.2,0,37.6,16,37.6,36.6
	c0,20.6-16.4,36.6-37.6,36.6c-15.1,0-17.3-7.7-15.8-12.5l0,0c0.1-0.4,0.5-0.7,1-0.7c0.2,0,0.4,0.1,0.6,0.2l0.1,0.1
	c3.7,2.4,6.8,4,14.1,4c16.4,0,28.2-13.9,28.2-27.6s-11.7-27.4-28.1-27.4c-16.5,0-28.3,13.7-28.3,27.4L59.8,209.5z"/>
</svg>
